<svg width="52" height="44" viewBox="0 0 52 44" fill="none" xmlns="http://www.w3.org/2000/svg">
<path d="M35.622 13.2879C35.0722 12.0505 34.2729 10.9398 33.2742 10.0254L32.4501 9.26924C32.4221 9.24427 32.3884 9.22655 32.352 9.21763C32.3156 9.20872 32.2775 9.20888 32.2412 9.21811C32.2048 9.22734 32.1713 9.24534 32.1435 9.27055C32.1158 9.29576 32.0946 9.3274 32.0819 9.3627L31.7138 10.419C31.4844 11.0817 31.0624 11.7586 30.4648 12.4241C30.4252 12.4666 30.3799 12.4779 30.3487 12.4808C30.3176 12.4836 30.2694 12.4779 30.227 12.4383C30.1873 12.4043 30.1675 12.3533 30.1703 12.3023C30.2751 10.5975 29.7653 8.67451 28.6495 6.58164C27.7263 4.84277 26.4434 3.48623 24.8404 2.54033L23.6708 1.85215C23.5179 1.76152 23.3225 1.88047 23.331 2.05889L23.3933 3.41826C23.4357 4.34717 23.3281 5.16846 23.0732 5.85098C22.7617 6.68643 22.3143 7.4624 21.7422 8.15908C21.3441 8.64325 20.8928 9.08119 20.397 9.46465C19.2027 10.3827 18.2316 11.559 17.5564 12.9056C16.8829 14.2638 16.5321 15.7593 16.5312 17.2754C16.5312 18.6121 16.7946 19.9063 17.3157 21.127C17.8189 22.3021 18.545 23.3687 19.4539 24.2677C20.3715 25.1739 21.4363 25.8876 22.6229 26.3832C23.8521 26.8986 25.1548 27.1592 26.5 27.1592C27.8452 27.1592 29.1479 26.8986 30.3771 26.386C31.5607 25.8933 32.6371 25.1748 33.5461 24.2705C34.4637 23.3643 35.183 22.3051 35.6843 21.1298C36.2046 19.9125 36.4715 18.602 36.4687 17.2782C36.4687 15.8962 36.1855 14.5538 35.622 13.2879ZM32.1924 22.897C30.6716 24.4036 28.6523 25.2306 26.5 25.2306C24.3477 25.2306 22.3284 24.4036 20.8076 22.897C19.2925 21.3932 18.457 19.3994 18.457 17.2782C18.457 16.0463 18.7346 14.8653 19.2812 13.7665C19.8136 12.6932 20.6065 11.7331 21.5694 10.9939C22.1835 10.5244 22.7405 9.9845 23.229 9.38535C23.937 8.52158 24.4921 7.55869 24.8772 6.525C25.0352 6.0986 25.15 5.65743 25.2199 5.20811C25.9024 5.83682 26.4745 6.5958 26.9531 7.48506C27.899 9.25791 28.3352 10.8354 28.2502 12.1777C28.2299 12.4939 28.2815 12.8105 28.4012 13.1039C28.5209 13.3972 28.7055 13.6596 28.9412 13.8713C29.1455 14.0558 29.3843 14.1979 29.6439 14.2893C29.9035 14.3807 30.1787 14.4196 30.4535 14.4037C31.0114 14.3754 31.524 14.129 31.8979 13.7127C32.2745 13.2907 32.6002 12.8603 32.8721 12.4213C33.2686 12.9282 33.5999 13.4805 33.8633 14.0752C34.3136 15.0891 34.543 16.1681 34.543 17.2782C34.543 19.3994 33.7075 21.396 32.1924 22.897Z" fill="#7000FF"/>
<path d="M6.05867 37.05H4.16867V38.99H2.84867V37.05H0.958672V35.83H2.84867V33.89H4.16867V35.83H6.05867V37.05ZM10.377 38.71L11.777 34.46H13.267L11.217 40H9.51695L7.47695 34.46H8.97695L10.377 38.71ZM19.7033 37.11C19.7033 37.31 19.6899 37.49 19.6633 37.65H15.6133C15.6466 38.05 15.7866 38.3633 16.0333 38.59C16.2799 38.8167 16.5833 38.93 16.9433 38.93C17.4633 38.93 17.8333 38.7067 18.0533 38.26H19.5633C19.4033 38.7933 19.0966 39.2333 18.6433 39.58C18.1899 39.92 17.6333 40.09 16.9733 40.09C16.4399 40.09 15.9599 39.9733 15.5333 39.74C15.1133 39.5 14.7833 39.1633 14.5433 38.73C14.3099 38.2967 14.1933 37.7967 14.1933 37.23C14.1933 36.6567 14.3099 36.1533 14.5433 35.72C14.7766 35.2867 15.1033 34.9533 15.5233 34.72C15.9433 34.4867 16.4266 34.37 16.9733 34.37C17.4999 34.37 17.9699 34.4833 18.3833 34.71C18.8033 34.9367 19.1266 35.26 19.3533 35.68C19.5866 36.0933 19.7033 36.57 19.7033 37.11ZM18.2533 36.71C18.2466 36.35 18.1166 36.0633 17.8633 35.85C17.6099 35.63 17.2999 35.52 16.9333 35.52C16.5866 35.52 16.2933 35.6267 16.0533 35.84C15.8199 36.0467 15.6766 36.3367 15.6233 36.71H18.2533ZM24.2952 34.38C24.9552 34.38 25.4885 34.59 25.8952 35.01C26.3018 35.4233 26.5052 36.0033 26.5052 36.75V40H25.1052V36.94C25.1052 36.5 24.9952 36.1633 24.7752 35.93C24.5552 35.69 24.2552 35.57 23.8752 35.57C23.4885 35.57 23.1818 35.69 22.9552 35.93C22.7352 36.1633 22.6252 36.5 22.6252 36.94V40H21.2252V34.46H22.6252V35.15C22.8118 34.91 23.0485 34.7233 23.3352 34.59C23.6285 34.45 23.9485 34.38 24.2952 34.38ZM27.9765 37.21C27.9765 36.65 28.0865 36.1533 28.3065 35.72C28.5332 35.2867 28.8398 34.9533 29.2265 34.72C29.6132 34.4867 30.0432 34.37 30.5165 34.37C30.8765 34.37 31.2198 34.45 31.5465 34.61C31.8732 34.7633 32.1332 34.97 32.3265 35.23V32.6H33.7465V40H32.3265V39.18C32.1532 39.4533 31.9098 39.6733 31.5965 39.84C31.2832 40.0067 30.9198 40.09 30.5065 40.09C30.0398 40.09 29.6132 39.97 29.2265 39.73C28.8398 39.49 28.5332 39.1533 28.3065 38.72C28.0865 38.28 27.9765 37.7767 27.9765 37.21ZM32.3365 37.23C32.3365 36.89 32.2698 36.6 32.1365 36.36C32.0032 36.1133 31.8232 35.9267 31.5965 35.8C31.3698 35.6667 31.1265 35.6 30.8665 35.6C30.6065 35.6 30.3665 35.6633 30.1465 35.79C29.9265 35.9167 29.7465 36.1033 29.6065 36.35C29.4732 36.59 29.4065 36.8767 29.4065 37.21C29.4065 37.5433 29.4732 37.8367 29.6065 38.09C29.7465 38.3367 29.9265 38.5267 30.1465 38.66C30.3732 38.7933 30.6132 38.86 30.8665 38.86C31.1265 38.86 31.3698 38.7967 31.5965 38.67C31.8232 38.5367 32.0032 38.35 32.1365 38.11C32.2698 37.8633 32.3365 37.57 32.3365 37.23ZM36.3238 33.8C36.0772 33.8 35.8705 33.7233 35.7038 33.57C35.5438 33.41 35.4638 33.2133 35.4638 32.98C35.4638 32.7467 35.5438 32.5533 35.7038 32.4C35.8705 32.24 36.0772 32.16 36.3238 32.16C36.5705 32.16 36.7738 32.24 36.9338 32.4C37.1005 32.5533 37.1838 32.7467 37.1838 32.98C37.1838 33.2133 37.1005 33.41 36.9338 33.57C36.7738 33.7233 36.5705 33.8 36.3238 33.8ZM37.0138 34.46V40H35.6138V34.46H37.0138ZM38.537 37.21C38.537 36.65 38.647 36.1533 38.867 35.72C39.0937 35.2867 39.4004 34.9533 39.787 34.72C40.1737 34.4867 40.6037 34.37 41.077 34.37C41.437 34.37 41.7804 34.45 42.107 34.61C42.4337 34.7633 42.6937 34.97 42.887 35.23V32.6H44.307V40H42.887V39.18C42.7137 39.4533 42.4704 39.6733 42.157 39.84C41.8437 40.0067 41.4804 40.09 41.067 40.09C40.6004 40.09 40.1737 39.97 39.787 39.73C39.4004 39.49 39.0937 39.1533 38.867 38.72C38.647 38.28 38.537 37.7767 38.537 37.21ZM42.897 37.23C42.897 36.89 42.8304 36.6 42.697 36.36C42.5637 36.1133 42.3837 35.9267 42.157 35.8C41.9304 35.6667 41.687 35.6 41.427 35.6C41.167 35.6 40.927 35.6633 40.707 35.79C40.487 35.9167 40.307 36.1033 40.167 36.35C40.0337 36.59 39.967 36.8767 39.967 37.21C39.967 37.5433 40.0337 37.8367 40.167 38.09C40.307 38.3367 40.487 38.5267 40.707 38.66C40.9337 38.7933 41.1737 38.86 41.427 38.86C41.687 38.86 41.9304 38.7967 42.157 38.67C42.3837 38.5367 42.5637 38.35 42.697 38.11C42.8304 37.8633 42.897 37.57 42.897 37.23ZM48.6344 40.09C48.101 40.09 47.621 39.9733 47.1944 39.74C46.7677 39.5 46.431 39.1633 46.1844 38.73C45.9444 38.2967 45.8244 37.7967 45.8244 37.23C45.8244 36.6633 45.9477 36.1633 46.1944 35.73C46.4477 35.2967 46.791 34.9633 47.2244 34.73C47.6577 34.49 48.141 34.37 48.6744 34.37C49.2077 34.37 49.691 34.49 50.1244 34.73C50.5577 34.9633 50.8977 35.2967 51.1444 35.73C51.3977 36.1633 51.5244 36.6633 51.5244 37.23C51.5244 37.7967 51.3944 38.2967 51.1344 38.73C50.881 39.1633 50.5344 39.5 50.0944 39.74C49.661 39.9733 49.1744 40.09 48.6344 40.09ZM48.6344 38.87C48.8877 38.87 49.1244 38.81 49.3444 38.69C49.571 38.5633 49.751 38.3767 49.8844 38.13C50.0177 37.8833 50.0844 37.5833 50.0844 37.23C50.0844 36.7033 49.9444 36.3 49.6644 36.02C49.391 35.7333 49.0544 35.59 48.6544 35.59C48.2544 35.59 47.9177 35.7333 47.6444 36.02C47.3777 36.3 47.2444 36.7033 47.2444 37.23C47.2444 37.7567 47.3744 38.1633 47.6344 38.45C47.901 38.73 48.2344 38.87 48.6344 38.87Z" fill="white"/>
</svg>
