<svg width="42" height="42" viewBox="0 0 42 42" fill="none" xmlns="http://www.w3.org/2000/svg">
<path d="M8.55908 12.7326H11.9827V29.8507H8.55908V12.7326ZM23.9653 12.7326H25.6771V29.8507H23.9653V12.7326ZM17.1181 12.7326H22.2535V29.8507H17.1181V12.7326ZM13.6945 12.7326H15.4063V29.8507H13.6945V12.7326ZM27.3889 12.7326H32.5244V29.8507H27.3889V12.7326Z" fill="white"/>
<path d="M6.84744 9.30903H13.6947V5.88542H6.84744C4.95932 5.88542 3.42383 7.42091 3.42383 9.30903V16.1562H6.84744V9.30903ZM6.84744 36.6979H13.6947V33.2743H6.84744V26.4271H3.42383V33.2743C3.42383 35.1624 4.95932 36.6979 6.84744 36.6979ZM34.2363 5.88542H27.3891V9.30903H34.2363V16.1562H37.6599V9.30903C37.6599 7.42091 36.1245 5.88542 34.2363 5.88542ZM34.2363 33.2743H27.3891V36.6979H34.2363C36.1245 36.6979 37.6599 35.1624 37.6599 33.2743V26.4271H34.2363V33.2743Z" fill="white"/>
</svg>
