<svg width="32" height="25" viewBox="0 0 32 25" fill="none" xmlns="http://www.w3.org/2000/svg">
<path d="M0.416504 4.26389C0.416504 3.19934 0.826957 2.17839 1.55757 1.42564C2.28818 0.67289 3.2791 0.25 4.31234 0.25H27.6873C28.7206 0.25 29.7115 0.67289 30.4421 1.42564C31.1727 2.17839 31.5832 3.19934 31.5832 4.26389V6.27083H0.416504V4.26389ZM0.416504 10.2847V20.3194C0.416504 21.384 0.826957 22.4049 1.55757 23.1577C2.28818 23.9104 3.2791 24.3333 4.31234 24.3333H27.6873C28.7206 24.3333 29.7115 23.9104 30.4421 23.1577C31.1727 22.4049 31.5832 21.384 31.5832 20.3194V10.2847H0.416504ZM6.26025 14.2986H8.20817C8.72479 14.2986 9.22025 14.5101 9.58556 14.8864C9.95086 15.2628 10.1561 15.7733 10.1561 16.3056V18.3125C10.1561 18.8448 9.95086 19.3552 9.58556 19.7316C9.22025 20.108 8.72479 20.3194 8.20817 20.3194H6.26025C5.74363 20.3194 5.24817 20.108 4.88287 19.7316C4.51756 19.3552 4.31234 18.8448 4.31234 18.3125V16.3056C4.31234 15.7733 4.51756 15.2628 4.88287 14.8864C5.24817 14.5101 5.74363 14.2986 6.26025 14.2986Z" fill="white"/>
</svg>
