<svg width="36" height="28" viewBox="0 0 36 28" fill="none" xmlns="http://www.w3.org/2000/svg">
<path d="M13.82 0.132507L12.8438 0.250007C12.8438 0.250007 8.46375 0.728757 5.265 3.29751H5.2275L5.1875 3.33501C4.47 3.99501 4.1575 4.80626 3.66375 5.99251C3.08173 7.41971 2.58625 8.88069 2.18 10.3675C1.2525 13.7213 0.5 17.7838 0.5 21.5V21.8125L0.65625 22.125C1.81375 24.1563 3.86875 25.45 5.77375 26.3438C7.6775 27.2375 9.32375 27.7113 10.4613 27.75L11.2037 27.7888L11.5938 27.125L12.9613 24.7025C14.4113 25.03 16.0813 25.25 18 25.25C19.9188 25.25 21.5888 25.03 23.0387 24.7025L24.4062 27.125L24.7975 27.7888L25.5387 27.75C26.6763 27.7113 28.3225 27.2375 30.2262 26.3438C32.1313 25.45 34.1862 24.1563 35.3438 22.125L35.5 21.8125V21.5C35.5 17.7838 34.7475 13.7213 33.82 10.3675C33.4138 8.88069 32.9183 7.41971 32.3363 5.99251C31.8425 4.80501 31.53 3.99501 30.8125 3.33626L30.7738 3.29626H30.7337C27.5375 0.728757 23.1562 0.250007 23.1562 0.250007L22.18 0.132507L21.8275 1.03126C21.8275 1.03126 21.4662 1.94376 21.2425 2.98501C20.1679 2.83674 19.0848 2.75824 18 2.75001C17.3312 2.75001 16.175 2.79376 14.7575 2.98501C14.6097 2.32042 14.4137 1.66745 14.1713 1.03126L13.82 0.132507ZM12.1012 2.98501C12.155 3.16001 12.2087 3.31126 12.2575 3.45376C10.6413 3.85376 8.9175 4.46376 7.33625 5.44501L8.66375 7.55501C11.9062 5.54251 16.5637 5.25001 18 5.25001C19.435 5.25001 24.0938 5.54251 27.3363 7.55501L28.6637 5.44501C27.0825 4.46376 25.3587 3.85376 23.7425 3.45251C23.7913 3.31126 23.845 3.16001 23.8988 2.98376C25.065 3.21876 27.2925 3.75626 29.1325 5.21126C29.1225 5.21626 29.6012 5.93876 30.0312 6.96876C30.4713 8.02876 30.9587 9.44001 31.3988 11.0313C32.2437 14.0825 32.9075 17.7988 32.9613 21.07C32.1737 22.2713 30.715 23.355 29.1712 24.0788C28.2031 24.5362 27.1789 24.8641 26.125 25.0538L25.5 24C25.8713 23.8625 26.2375 23.7125 26.555 23.57C28.4788 22.725 29.5238 21.8125 29.5238 21.8125L27.8825 19.9375C27.8825 19.9375 27.18 20.5825 25.5387 21.305C23.9 22.0275 21.3937 22.75 18 22.75C14.6062 22.75 12.1012 22.0275 10.4613 21.305C8.82 20.5825 8.1175 19.9375 8.1175 19.9375L6.47625 21.8125C6.47625 21.8125 7.52125 22.725 9.445 23.57C9.7625 23.7125 10.1287 23.8638 10.5 24L9.875 25.055C8.82059 24.8646 7.79592 24.536 6.8275 24.0775C5.285 23.355 3.825 22.2713 3.04 21.07C3.0925 17.7988 3.75625 14.0825 4.6025 11.0313C4.97644 9.65104 5.43267 8.29445 5.96875 6.96876C6.39875 5.93876 6.8775 5.21626 6.8675 5.21126C8.7075 3.75626 10.935 3.21876 12.1012 2.98501ZM13.625 11.5C12.6587 11.5 11.8038 12.0513 11.2812 12.75C10.7587 13.4488 10.5 14.3075 10.5 15.25C10.5 16.1925 10.7587 17.0513 11.2812 17.75C11.8038 18.4488 12.6587 19 13.625 19C14.5913 19 15.4462 18.4488 15.9688 17.75C16.4913 17.0513 16.75 16.1925 16.75 15.25C16.75 14.3075 16.4913 13.4488 15.9688 12.75C15.4462 12.0513 14.5913 11.5 13.625 11.5ZM22.375 11.5C21.4088 11.5 20.5537 12.0513 20.0312 12.75C19.5088 13.4488 19.25 14.3075 19.25 15.25C19.25 16.1925 19.5088 17.0513 20.0312 17.75C20.5537 18.4488 21.4088 19 22.375 19C23.3412 19 24.1963 18.4488 24.7188 17.75C25.2412 17.0513 25.5 16.1925 25.5 15.25C25.5 14.3075 25.2412 13.4488 24.7188 12.75C24.1963 12.0513 23.3412 11.5 22.375 11.5ZM13.625 14C13.6938 14 13.7812 14.025 13.9375 14.235C14.0938 14.4438 14.25 14.81 14.25 15.25C14.25 15.69 14.0938 16.0563 13.9375 16.2663C13.7812 16.475 13.6938 16.5 13.625 16.5C13.5562 16.5 13.4688 16.475 13.3125 16.265C13.1058 15.9672 12.9966 15.6125 13 15.25C13 14.81 13.1562 14.4438 13.3125 14.2338C13.4688 14.025 13.5562 14 13.625 14ZM22.375 14C22.4438 14 22.5312 14.025 22.6875 14.235C22.8438 14.4438 23 14.81 23 15.25C23 15.69 22.8438 16.0563 22.6875 16.2663C22.5312 16.475 22.4438 16.5 22.375 16.5C22.3062 16.5 22.2188 16.475 22.0625 16.265C21.8558 15.9672 21.7466 15.6125 21.75 15.25C21.75 14.81 21.9062 14.4438 22.0625 14.2338C22.2188 14.025 22.3062 14 22.375 14Z" fill="#E9E9E9"/>
</svg>
