<svg width="35" height="34" viewBox="0 0 35 34" fill="none" xmlns="http://www.w3.org/2000/svg">
<path d="M16.2846 19.4723C16.6437 19.1128 17.2621 19.1128 17.6211 19.4723L22.7412 24.5984C23.6854 25.5437 24.9421 26.0629 26.272 26.0629H27.2761L20.8195 32.5271C18.8047 34.491 15.5332 34.491 13.5185 32.5271L7.0353 26.043H7.65369C8.98357 26.043 10.2403 25.5237 11.1845 24.5784L16.2846 19.4723ZM17.6211 14.5726C17.1956 14.9387 16.6503 14.9454 16.2846 14.5726L11.1845 9.46652C10.2403 8.46128 8.98357 8.00193 7.65369 8.00193H7.0353L13.5118 1.51515C15.5332 -0.505049 18.8047 -0.505049 20.8195 1.51515L27.2827 7.98196H26.272C24.9421 7.98196 23.6854 8.50122 22.7412 9.44655L17.6211 14.5726ZM7.65369 9.4998C8.57131 9.4998 9.41578 9.87261 10.1206 10.525L15.2207 15.6311C15.6995 16.0505 16.3245 16.3501 16.9562 16.3501C17.5812 16.3501 18.2063 16.0505 18.685 15.6311L23.8051 10.505C24.4567 9.85929 25.3544 9.48649 26.272 9.48649H28.7788L32.6554 13.3676C34.6702 15.3848 34.6702 18.6601 32.6554 20.6773L28.7788 24.5584H26.272C25.3544 24.5584 24.4567 24.1856 23.8051 23.5332L18.685 18.4072C17.7608 17.4818 16.145 17.4818 15.2207 18.4138L10.1206 23.5132C9.41578 24.1656 8.57131 24.5384 7.65369 24.5384H5.53785L1.67987 20.6773C-0.337953 18.6601 -0.337953 15.3848 1.67987 13.3676L5.53785 9.4998H7.65369Z" fill="white"/>
</svg>
