<svg width="32" height="38" viewBox="0 0 32 38" fill="none" xmlns="http://www.w3.org/2000/svg">
<path d="M28.4444 22.167V28.9876H24.8889V22.167H28.4444ZM7.11111 22.167V28.9876H5.33333C4.35556 28.9876 3.55556 28.2202 3.55556 27.2824V22.167H7.11111ZM16 0C11.7565 0 7.68687 1.61684 4.68629 4.49484C1.68571 7.37284 0 11.2763 0 15.3464V27.2824C0 30.113 2.38222 32.3979 5.33333 32.3979H10.6667V18.7567H3.55556V15.3464C3.55556 8.74743 9.12 3.4103 16 3.4103C22.88 3.4103 28.4444 8.74743 28.4444 15.3464V18.7567H21.3333V32.3979H28.4444V34.103H16V37.5133H26.6667C29.6178 37.5133 32 35.2284 32 32.3979V15.3464C32 11.2763 30.3143 7.37284 27.3137 4.49484C24.3131 1.61684 20.2435 0 16 0Z" fill="#E9E9E9"/>
</svg>
