<svg width="32" height="32" viewBox="0 0 32 32" fill="none" xmlns="http://www.w3.org/2000/svg">
<path fill-rule="evenodd" clip-rule="evenodd" d="M23.22 19.176C22.8227 18.9774 20.8747 18.02 20.512 17.8867C20.1493 17.7547 19.8853 17.6894 19.62 18.0867C19.356 18.4814 18.5973 19.3747 18.3667 19.6387C18.1347 19.904 17.904 19.936 17.508 19.7387C17.112 19.5387 15.8347 19.1214 14.3213 17.772C13.144 16.7214 12.348 15.424 12.1173 15.0267C11.8867 14.6307 12.092 14.416 12.2907 14.2187C12.4693 14.0414 12.6867 13.756 12.8853 13.5254C13.084 13.2934 13.1493 13.128 13.2813 12.8627C13.4147 12.5987 13.348 12.368 13.248 12.1694C13.1493 11.9707 12.3573 10.02 12.0267 9.22669C11.7053 8.45469 11.3787 8.56002 11.136 8.54669C10.904 8.53602 10.64 8.53336 10.376 8.53336C10.112 8.53336 9.68267 8.63202 9.32 9.02936C8.956 9.42536 7.93333 10.384 7.93333 12.3347C7.93333 14.284 9.352 16.168 9.55067 16.4334C9.74933 16.6974 12.344 20.7 16.3187 22.416C17.2653 22.824 18.0027 23.068 18.5773 23.2494C19.5267 23.552 20.3907 23.5094 21.0733 23.4067C21.8333 23.2934 23.4173 22.448 23.748 21.5227C24.0773 20.5974 24.0773 19.804 23.9787 19.6387C23.88 19.4734 23.616 19.3747 23.2187 19.176H23.22ZM15.9907 29.0467H15.9853C13.6246 29.0471 11.3072 28.4125 9.276 27.2094L8.796 26.924L3.80667 28.2334L5.13867 23.3694L4.82533 22.8707C3.50552 20.7698 2.80706 18.3384 2.81067 15.8574C2.81333 8.59069 8.72533 2.67869 15.996 2.67869C19.516 2.67869 22.8253 4.05202 25.3133 6.54269C26.5405 7.7648 27.5132 9.21811 28.175 10.8186C28.8369 12.419 29.1749 14.1348 29.1693 15.8667C29.1667 23.1334 23.2547 29.0467 15.9907 29.0467V29.0467ZM27.2067 4.65069C25.7376 3.17192 23.9896 1.99941 22.0641 1.20109C20.1386 0.402776 18.0738 -0.00546551 15.9893 2.41192e-05C7.25067 2.41192e-05 0.136 7.11336 0.133333 15.856C0.129284 18.6384 0.859166 21.3725 2.24933 23.7827L0 32L8.40533 29.7947C10.7305 31.0615 13.3361 31.7253 15.984 31.7254H15.9907C24.7293 31.7254 31.844 24.612 31.8467 15.868C31.8531 13.7844 31.4463 11.7202 30.6499 9.79474C29.8535 7.86931 28.6831 6.12092 27.2067 4.65069" fill="#E9E9E9"/>
</svg>
